<svg xmlns="http://www.w3.org/2000/svg" width="400" height="300" viewBox="0 0 400 300">
      <defs>
        <linearGradient id="brainGrad" x1="0%" y1="0%" x2="100%" y2="100%">
          <stop offset="0%" stop-color="#0c8ee5"/>
          <stop offset="50%" stop-color="#7c3aed"/>
          <stop offset="100%" stop-color="#0c8ee5"/>
        </linearGradient>
        <filter id="brainGlow"><feGaussianBlur stdDeviation="12" result="blur"/><feMerge><feMergeNode in="blur"/><feMergeNode in="SourceGraphic"/></feMerge></filter>
      </defs>
      <circle cx="200" cy="150" r="120" fill="url(#brainGrad)" opacity="0.05" filter="url(#brainGlow)"/>
      <g transform="translate(200, 150)">
        <path d="M-10 -80 C-40 -85 -70 -70 -85 -45 C-100 -20 -95 5 -80 20 C-65 35 -55 40 -50 50 C-45 60 -40 75 -30 80 C-20 85 -10 80 -5 70 C0 60 5 55 10 60 C15 65 20 70 25 60 C30 50 25 35 20 20 C15 5 5 -10 5 -30 C5 -45 15 -60 10 -75 C5 -85 -5 -80 -10 -80Z" fill="url(#brainGrad)" opacity="0.08" stroke="url(#brainGrad)" stroke-width="1.5" stroke-opacity="0.3"/>
        <path d="M10 -80 C40 -85 70 -70 85 -45 C100 -20 95 5 80 20 C65 35 55 40 50 50 C45 60 40 75 30 80 C20 85 10 80 5 70 C0 60 -5 55 -10 60 C-15 65 -20 70 -25 60 C-30 50 -25 35 -20 20 C-15 5 -5 -10 -5 -30 C-5 -45 -15 -60 -10 -75 C-5 -85 5 -80 10 -80Z" fill="url(#brainGrad)" opacity="0.08" stroke="url(#brainGrad)" stroke-width="1.5" stroke-opacity="0.3"/>
        <path d="M-40 -40 Q-30 -30 -20 -35 Q-10 -40 -15 -25" fill="none" stroke="url(#brainGrad)" stroke-width="1" opacity="0.4"/>
        <path d="M-50 -20 Q-40 -10 -30 -15 Q-20 -20 -25 -5" fill="none" stroke="url(#brainGrad)" stroke-width="1" opacity="0.3"/>
        <path d="M-35 20 Q-25 30 -15 25 Q-5 20 -10 35" fill="none" stroke="url(#brainGrad)" stroke-width="1" opacity="0.35"/>
        <path d="M40 -40 Q30 -30 20 -35 Q10 -40 15 -25" fill="none" stroke="url(#brainGrad)" stroke-width="1" opacity="0.4"/>
        <path d="M50 -20 Q40 -10 30 -15 Q20 -20 25 -5" fill="none" stroke="url(#brainGrad)" stroke-width="1" opacity="0.3"/>
        <path d="M35 20 Q25 30 15 25 Q5 20 10 35" fill="none" stroke="url(#brainGrad)" stroke-width="1" opacity="0.35"/>
        <path d="M-5 -30 Q0 -25 5 -30" fill="none" stroke="url(#brainGrad)" stroke-width="2" opacity="0.5"/>
        <path d="M-5 -15 Q0 -10 5 -15" fill="none" stroke="url(#brainGrad)" stroke-width="2" opacity="0.4"/>
        <path d="M-5 5 Q0 10 5 5" fill="none" stroke="url(#brainGrad)" stroke-width="2" opacity="0.45"/>
        <circle cx="-45" cy="-30" r="3" fill="url(#brainGrad)" opacity="0.6"/>
        <circle cx="-55" cy="-10" r="2.5" fill="url(#brainGrad)" opacity="0.5"/>
        <circle cx="-40" cy="15" r="2" fill="url(#brainGrad)" opacity="0.4"/>
        <circle cx="45" cy="-30" r="3" fill="url(#brainGrad)" opacity="0.6"/>
        <circle cx="55" cy="-10" r="2.5" fill="url(#brainGrad)" opacity="0.5"/>
        <circle cx="40" cy="15" r="2" fill="url(#brainGrad)" opacity="0.4"/>
        <circle cx="0" cy="-10" r="4" fill="url(#brainGrad)" opacity="0.7"/>
        <circle cx="0" cy="-10" r="8" fill="url(#brainGrad)" opacity="0.1"/>
      </g>
    </svg>