<svg xmlns="http://www.w3.org/2000/svg" width="800" height="800" viewBox="0 0 800 800">
      <defs>
        <pattern id="grid" width="40" height="40" patternUnits="userSpaceOnUse">
          <circle cx="20" cy="20" r="1.5" fill="#0c8ee5" opacity="0.15"/>
        </pattern>
        <linearGradient id="heroGlow" x1="0%" y1="0%" x2="100%" y2="100%">
          <stop offset="0%" stop-color="#0c8ee5" stop-opacity="0.08"/>
          <stop offset="50%" stop-color="#7c3aed" stop-opacity="0.05"/>
          <stop offset="100%" stop-color="#0c8ee5" stop-opacity="0"/>
        </linearGradient>
      </defs>
      <rect width="800" height="800" fill="url(#heroGlow)"/>
      <rect width="800" height="800" fill="url(#grid)"/>
      <circle cx="150" cy="200" r="60" fill="none" stroke="#0c8ee5" stroke-width="1" opacity="0.2"/>
      <circle cx="150" cy="200" r="40" fill="none" stroke="#0c8ee5" stroke-width="0.5" opacity="0.15"/>
      <circle cx="650" cy="150" r="80" fill="none" stroke="#7c3aed" stroke-width="1" opacity="0.15"/>
      <circle cx="650" cy="150" r="55" fill="none" stroke="#7c3aed" stroke-width="0.5" opacity="0.1"/>
      <rect x="600" y="500" width="80" height="80" rx="16" fill="none" stroke="#0c8ee5" stroke-width="1" opacity="0.15" transform="rotate(30 640 540)"/>
      <rect x="100" y="550" width="50" height="50" rx="12" fill="none" stroke="#7c3aed" stroke-width="1" opacity="0.12" transform="rotate(-20 125 575)"/>
      <path d="M300 700 Q350 650 400 680 Q450 710 500 660" fill="none" stroke="#0c8ee5" stroke-width="1" opacity="0.12"/>
      <circle cx="400" cy="400" r="4" fill="#0c8ee5" opacity="0.4"/>
      <circle cx="200" cy="300" r="3" fill="#7c3aed" opacity="0.3"/>
      <circle cx="600" cy="350" r="3" fill="#0c8ee5" opacity="0.3"/>
    </svg>