<svg xmlns="http://www.w3.org/2000/svg" width="600" height="500" viewBox="0 0 600 500">
      <defs>
        <linearGradient id="probGrad" x1="0%" y1="0%" x2="100%" y2="100%">
          <stop offset="0%" stop-color="#0c8ee5"/>
          <stop offset="100%" stop-color="#7c3aed"/>
        </linearGradient>
        <filter id="shadow"><feDropShadow dx="0" dy="4" stdDeviation="8" flood-color="#0c8ee5" flood-opacity="0.1"/></filter>
      </defs>
      <g opacity="0.6">
        <rect x="20" y="50" width="200" height="180" rx="20" fill="#fef2f2" stroke="#f43f5e" stroke-width="1" stroke-opacity="0.2"/>
        <text x="120" y="90" text-anchor="middle" font-family="Inter, sans-serif" font-size="14" font-weight="600" fill="#f43f5e">ANTES</text>
        <line x1="50" y1="120" x2="120" y2="120" stroke="#f43f5e" stroke-width="2" stroke-dasharray="4,3" opacity="0.4"/>
        <line x1="80" y1="140" x2="160" y2="140" stroke="#f43f5e" stroke-width="2" stroke-dasharray="4,3" opacity="0.4"/>
        <line x1="60" y1="160" x2="140" y2="160" stroke="#f43f5e" stroke-width="2" stroke-dasharray="4,3" opacity="0.4"/>
        <circle cx="60" cy="200" r="5" fill="#f43f5e" opacity="0.3"/>
        <circle cx="100" cy="210" r="4" fill="#f43f5e" opacity="0.2"/>
        <circle cx="150" cy="195" r="6" fill="#f43f5e" opacity="0.25"/>
        <text x="60" y="135" text-anchor="middle" font-family="Inter" font-size="20" fill="#f43f5e" opacity="0.3">?</text>
        <text x="170" y="175" text-anchor="middle" font-family="Inter" font-size="16" fill="#f43f5e" opacity="0.25">?</text>
      </g>
      <g transform="translate(230, 140)">
        <path d="M20 0 L60 0 M60 0 L45 -10 M60 0 L45 10" stroke="url(#probGrad)" stroke-width="2.5" fill="none" stroke-linecap="round" stroke-linejoin="round"/>
      </g>
      <g filter="url(#shadow)">
        <rect x="300" y="40" width="260" height="200" rx="20" fill="white" stroke="#e5e7eb" stroke-width="1"/>
        <rect x="300" y="40" width="260" height="40" rx="20" fill="url(#probGrad)" opacity="0.08"/>
        <text x="320" y="65" font-family="Inter" font-size="12" font-weight="600" fill="#0c8ee5">DEPOIS - Dashboard</text>
        <rect x="320" y="100" width="180" height="8" rx="4" fill="#f3f4f6"/>
        <rect x="320" y="100" width="140" height="8" rx="4" fill="url(#probGrad)" opacity="0.6"/>
        <text x="510" y="107" font-family="Inter" font-size="10" fill="#6b7280" font-weight="600">78%</text>
        <rect x="320" y="120" width="180" height="8" rx="4" fill="#f3f4f6"/>
        <rect x="320" y="120" width="110" height="8" rx="4" fill="url(#probGrad)" opacity="0.45"/>
        <text x="510" y="127" font-family="Inter" font-size="10" fill="#6b7280" font-weight="600">62%</text>
        <rect x="320" y="140" width="180" height="8" rx="4" fill="#f3f4f6"/>
        <rect x="320" y="140" width="160" height="8" rx="4" fill="url(#probGrad)" opacity="0.5"/>
        <text x="510" y="147" font-family="Inter" font-size="10" fill="#6b7280" font-weight="600">87%</text>
        <circle cx="325" cy="175" r="6" fill="#0c8ee5" opacity="0.15"/>
        <path d="M322 175 L324 178 L329 172" stroke="#0c8ee5" stroke-width="1.5" fill="none" stroke-linecap="round" stroke-linejoin="round"/>
        <text x="340" y="178" font-family="Inter" font-size="11" fill="#374151">Matematica - Funcoes</text>
        <circle cx="325" cy="195" r="6" fill="#0c8ee5" opacity="0.15"/>
        <path d="M322 195 L324 198 L329 192" stroke="#0c8ee5" stroke-width="1.5" fill="none" stroke-linecap="round" stroke-linejoin="round"/>
        <text x="340" y="198" font-family="Inter" font-size="11" fill="#374151">Natureza - Ecologia</text>
      </g>
    </svg>