<svg xmlns="http://www.w3.org/2000/svg" viewBox="0 0 100 100" fill="none">
  <circle cx="50" cy="50" r="48" fill="url(#bg)" opacity="0.12"/>
  <circle cx="50" cy="50" r="46" fill="white" stroke="url(#bd)" stroke-width="2"/>
  <circle cx="50" cy="35" r="16" fill="url(#bd)" opacity="0.15"/>
  <ellipse cx="50" cy="72" rx="22" ry="16" fill="url(#bd)" opacity="0.1"/>
  <!-- Long hair female -->
  <path d="M34 30 Q32 18 38 14 Q44 12 50 14 Q56 12 62 14 Q68 18 66 30 Q68 38 66 50 Q64 62 60 70 Q56 74 50 74 Q44 74 40 70 Q36 62 34 50 Q32 38 34 30Z" fill="#4a3f35" opacity="0.45"/>
  <circle cx="44" cy="33" r="2.5" fill="#4a3f35"/>
  <circle cx="56" cy="33" r="2.5" fill="#4a3f35"/>
  <path d="M43 44 Q50 50 57 44" stroke="#4a3f35" stroke-width="1.8" fill="none" stroke-linecap="round" opacity="0.5"/>
  <defs>
    <linearGradient id="bg" x1="0%" y1="0%" x2="100%" y2="100%"><stop offset="0%" stop-color="#06b6d4"/><stop offset="100%" stop-color="#a855f7"/></linearGradient>
    <linearGradient id="bd" x1="0%" y1="0%" x2="100%" y2="100%"><stop offset="0%" stop-color="#06b6d4"/><stop offset="100%" stop-color="#a855f7"/></linearGradient>
  </defs>
</svg>
