<svg xmlns="http://www.w3.org/2000/svg" viewBox="0 0 120 120" width="120" height="120">
  <defs>
    <linearGradient id="a1" x1="0%" y1="0%" x2="100%" y2="100%">
      <stop offset="0%" style="stop-color:#004891;stop-opacity:0.12"/>
      <stop offset="100%" style="stop-color:#00b5d8;stop-opacity:0.04"/>
    </linearGradient>
  </defs>
  <!-- Origami head -->
  <polygon points="60,15 95,55 80,90 40,90 25,55" fill="url(#a1)" stroke="#004891" stroke-width="1.5" stroke-linejoin="round"/>
  <!-- Face folds -->
  <polygon points="60,15 60,55 40,55" fill="#ef0070" opacity="0.06" stroke="#ef0070" stroke-width="0.8" stroke-linejoin="round"/>
  <polygon points="60,15 80,55 60,55" fill="#00b5d8" opacity="0.06" stroke="#00b5d8" stroke-width="0.8" stroke-linejoin="round"/>
  <polygon points="40,55 60,55 60,90 40,90" fill="#004891" opacity="0.04" stroke="#004891" stroke-width="0.8" stroke-linejoin="round"/>
  <polygon points="60,55 80,90 60,90" fill="#ef0070" opacity="0.04" stroke="#ef0070" stroke-width="0.8" stroke-linejoin="round"/>
  <!-- Eyes -->
  <circle cx="47" cy="55" r="3" fill="#004891" opacity="0.4"/>
  <circle cx="73" cy="55" r="3" fill="#004891" opacity="0.4"/>
  <!-- Smile -->
  <polyline points="48,70 55,76 72,70" fill="none" stroke="#ef0070" stroke-width="1.2" stroke-linecap="round" stroke-linejoin="round" opacity="0.5"/>
  <!-- AI sparkle -->
  <polygon points="105,25 110,20 115,25 110,30" fill="#ef0070" opacity="0.3"/>
  <polygon points="10,95 15,90 20,95 15,100" fill="#00b5d8" opacity="0.25"/>
  <text x="60" y="118" text-anchor="middle" fill="#004891" font-size="9" font-family="sans-serif" font-weight="bold">Assistente</text>
  <text x="60" y="128" text-anchor="middle" fill="#004891" font-size="9" font-family="sans-serif" font-weight="bold">IA</text>
</svg>
