<svg xmlns="http://www.w3.org/2000/svg" viewBox="0 0 120 120" width="120" height="120">
  <defs>
    <linearGradient id="db1" x1="0%" y1="0%" x2="100%" y2="100%">
      <stop offset="0%" style="stop-color:#00b5d8;stop-opacity:0.12"/>
      <stop offset="100%" style="stop-color:#00b5d8;stop-opacity:0.03"/>
    </linearGradient>
  </defs>
  <!-- Origami chart -->
  <polygon points="20,85 40,85 40,105 20,105" fill="#ef0070" opacity="0.12" stroke="#ef0070" stroke-width="1.2" stroke-linejoin="round"/>
  <polygon points="20,85 40,65 40,85" fill="#ef0070" opacity="0.08" stroke="#ef0070" stroke-width="0.8" stroke-linejoin="round"/>
  <polygon points="45,85 65,85 65,105 45,105" fill="#004891" opacity="0.12" stroke="#004891" stroke-width="1.2" stroke-linejoin="round"/>
  <polygon points="45,85 65,55 65,85" fill="#004891" opacity="0.08" stroke="#004891" stroke-width="0.8" stroke-linejoin="round"/>
  <polygon points="70,85 90,85 90,105 70,105" fill="#00b5d8" opacity="0.12" stroke="#00b5d8" stroke-width="1.2" stroke-linejoin="round"/>
  <polygon points="70,85 90,40 90,85" fill="#00b5d8" opacity="0.08" stroke="#00b5d8" stroke-width="0.8" stroke-linejoin="round"/>
  <polygon points="95,85 115,85 115,105 95,105" fill="#ef0070" opacity="0.1" stroke="#ef0070" stroke-width="1.2" stroke-linejoin="round"/>
  <polygon points="95,85 115,50 115,85" fill="#ef0070" opacity="0.06" stroke="#ef0070" stroke-width="0.8" stroke-linejoin="round"/>
  <!-- Growth line -->
  <polyline points="30,85 55,60 80,45 105,50" fill="none" stroke="#ef0070" stroke-width="2" stroke-linecap="round" stroke-linejoin="round"/>
  <text x="60" y="118" text-anchor="middle" fill="#004891" font-size="11" font-family="sans-serif" font-weight="bold">Dashboard</text>
</svg>
