<svg xmlns="http://www.w3.org/2000/svg" viewBox="0 0 120 120" fill="none">
  <defs>
    <linearGradient id="g2" x1="0%" y1="0%" x2="100%" y2="100%">
      <stop offset="0%" stop-color="#da007e"/>
      <stop offset="100%" stop-color="#a80062"/>
    </linearGradient>
  </defs>
  <circle cx="60" cy="60" r="55" fill="#da007e" opacity="0.06"/>
  <circle cx="60" cy="60" r="45" fill="#da007e" opacity="0.04"/>
  <!-- Brain nodes -->
  <circle cx="60" cy="50" r="18" fill="#da007e" opacity="0.08"/>
  <circle cx="60" cy="50" r="8" fill="#da007e" opacity="0.15"/>
  <!-- Connections -->
  <g stroke="#da007e" stroke-width="1.5" opacity="0.25">
    <line x1="42" y1="50" x2="60" y2="50"/>
    <line x1="78" y1="50" x2="60" y2="50"/>
    <line x1="60" y1="32" x2="60" y2="50"/>
    <line x1="60" y1="68" x2="60" y2="50"/>
    <line x1="47" y1="38" x2="73" y2="62"/>
    <line x1="73" y1="38" x2="47" y2="62"/>
  </g>
  <circle cx="42" cy="50" r="3" fill="#da007e" opacity="0.5"/>
  <circle cx="78" cy="50" r="3" fill="#da007e" opacity="0.5"/>
  <circle cx="60" cy="32" r="3" fill="#da007e" opacity="0.5"/>
  <circle cx="60" cy="68" r="3" fill="#da007e" opacity="0.5"/>
  <circle cx="47" cy="38" r="2.5" fill="#fe4e19" opacity="0.4"/>
  <circle cx="73" cy="62" r="2.5" fill="#fe4e19" opacity="0.4"/>
  <!-- Sparkle dots -->
  <circle cx="35" cy="35" r="2" fill="#da007e" opacity="0.3"/>
  <circle cx="85" cy="35" r="2" fill="#da007e" opacity="0.3"/>
  <circle cx="35" cy="75" r="1.5" fill="#fe4e19" opacity="0.25"/>
  <circle cx="85" cy="75" r="1.5" fill="#fe4e19" opacity="0.25"/>
</svg>